<svg id="visual" viewBox="0 0 900 600" width="900" height="600" xmlns="http://www.w3.org/2000/svg" xmlns:xlink="http://www.w3.org/1999/xlink" version="1.1"><rect x="0" y="0" width="900" height="600" fill="#003257"></rect><defs><linearGradient id="grad1_0" x1="33.3%" y1="100%" x2="100%" y2="0%"><stop offset="20%" stop-color="#003257" stop-opacity="1"></stop><stop offset="80%" stop-color="#003257" stop-opacity="1"></stop></linearGradient></defs><defs><linearGradient id="grad2_0" x1="0%" y1="100%" x2="66.7%" y2="0%"><stop offset="20%" stop-color="#003257" stop-opacity="1"></stop><stop offset="80%" stop-color="#003257" stop-opacity="1"></stop></linearGradient></defs><g transform="translate(900, 600)"><path d="M-486.7 0C-446.1 -47.4 -405.5 -94.8 -389.9 -161.5C-374.3 -228.2 -383.8 -314.1 -344.2 -344.2C-304.6 -374.3 -215.9 -348.6 -150.4 -363.1C-84.9 -377.5 -42.4 -432.1 0 -486.7L0 0Z" fill="#050234"></path></g><g transform="translate(0, 0)"><path d="M486.7 0C465.8 62.9 444.9 125.7 409.3 169.5C373.6 213.3 323.3 238 287.8 287.8C252.3 337.6 231.8 412.4 186.3 449.7C140.8 487 70.4 486.9 0 486.7L0 0Z" fill="#050234"></path></g></svg>