<svg id="visual" viewBox="0 0 900 600" width="900" height="600" xmlns="http://www.w3.org/2000/svg" xmlns:xlink="http://www.w3.org/1999/xlink" version="1.1"><rect x="0" y="0" width="900" height="600" fill="#001220"></rect><defs><linearGradient id="grad1_0" x1="33.3%" y1="100%" x2="100%" y2="0%"><stop offset="20%" stop-color="#001220" stop-opacity="1"></stop><stop offset="80%" stop-color="#001220" stop-opacity="1"></stop></linearGradient></defs><defs><linearGradient id="grad2_0" x1="0%" y1="100%" x2="66.7%" y2="0%"><stop offset="20%" stop-color="#001220" stop-opacity="1"></stop><stop offset="80%" stop-color="#001220" stop-opacity="1"></stop></linearGradient></defs><g transform="translate(900, 600)"><path d="M-324.5 0C-312.6 -40.6 -300.8 -81.2 -283.6 -117.5C-266.5 -153.8 -244.1 -185.7 -217.8 -217.8C-191.4 -249.8 -161.1 -282 -124.2 -299.8C-87.2 -317.6 -43.6 -321 0 -324.5L0 0Z" fill="#0f114f"></path></g><g transform="translate(0, 0)"><path d="M324.5 0C323.6 45.8 322.7 91.6 299.8 124.2C276.9 156.7 231.9 176 198 198C164.1 219.9 141.4 244.6 110.2 266.1C79.1 287.6 39.5 306.1 0 324.5L0 0Z" fill="#0f114f"></path></g></svg>